<?xml version="1.0" encoding="UTF-8" standalone="no"?>
<!DOCTYPE svg PUBLIC "-//W3C//DTD SVG 1.1//EN"
 "http://www.w3.org/Graphics/SVG/1.1/DTD/svg11.dtd">
<!-- Generated by graphviz version 2.38.0 (20140413.2041)
 -->
<!-- Title: G Pages: 1 -->
<svg width="364pt" height="1154pt"
 viewBox="0.00 0.00 364.00 1154.00" xmlns="http://www.w3.org/2000/svg" xmlns:xlink="http://www.w3.org/1999/xlink">
<g id="graph0" class="graph" transform="scale(1 1) rotate(0) translate(4 1150)">
<title>G</title>
<polygon fill="white" stroke="none" points="-4,4 -4,-1150 360,-1150 360,4 -4,4"/>
<g id="clust1" class="cluster"><title>cluster_Global</title>
<path fill="none" stroke="gray" d="M20,-8C20,-8 336,-8 336,-8 342,-8 348,-14 348,-20 348,-20 348,-1126 348,-1126 348,-1132 342,-1138 336,-1138 336,-1138 20,-1138 20,-1138 14,-1138 8,-1132 8,-1126 8,-1126 8,-20 8,-20 8,-14 14,-8 20,-8"/>
<text text-anchor="middle" x="178" y="-1125.2" font-family="Times New Roman,serif" font-size="11.00" fill="gray">Global</text>
</g>
<g id="clust2" class="cluster"><title>cluster_\util</title>
<path fill="none" stroke="gray" d="M214.5,-984C214.5,-984 297.5,-984 297.5,-984 303.5,-984 309.5,-990 309.5,-996 309.5,-996 309.5,-1098 309.5,-1098 309.5,-1104 303.5,-1110 297.5,-1110 297.5,-1110 214.5,-1110 214.5,-1110 208.5,-1110 202.5,-1104 202.5,-1098 202.5,-1098 202.5,-996 202.5,-996 202.5,-990 208.5,-984 214.5,-984"/>
<text text-anchor="middle" x="256" y="-1097.2" font-family="Times New Roman,serif" font-size="11.00" fill="gray">util</text>
</g>
<g id="clust3" class="cluster"><title>cluster_\datamapper</title>
<path fill="none" stroke="gray" d="M41.5,-742C41.5,-742 314.5,-742 314.5,-742 320.5,-742 326.5,-748 326.5,-754 326.5,-754 326.5,-964 326.5,-964 326.5,-970 320.5,-976 314.5,-976 314.5,-976 41.5,-976 41.5,-976 35.5,-976 29.5,-970 29.5,-964 29.5,-964 29.5,-754 29.5,-754 29.5,-748 35.5,-742 41.5,-742"/>
<text text-anchor="middle" x="178" y="-963.2" font-family="Times New Roman,serif" font-size="11.00" fill="gray">datamapper</text>
</g>
<g id="clust4" class="cluster"><title>cluster_\controller</title>
<path fill="none" stroke="gray" d="M28,-446C28,-446 328,-446 328,-446 334,-446 340,-452 340,-458 340,-458 340,-722 340,-722 340,-728 334,-734 328,-734 328,-734 28,-734 28,-734 22,-734 16,-728 16,-722 16,-722 16,-458 16,-458 16,-452 22,-446 28,-446"/>
<text text-anchor="middle" x="178" y="-721.2" font-family="Times New Roman,serif" font-size="11.00" fill="gray">controller</text>
</g>
<g id="clust5" class="cluster"><title>cluster_\model</title>
<path fill="none" stroke="gray" d="M43,-258C43,-258 294,-258 294,-258 300,-258 306,-264 306,-270 306,-270 306,-426 306,-426 306,-432 300,-438 294,-438 294,-438 43,-438 43,-438 37,-438 31,-432 31,-426 31,-426 31,-270 31,-270 31,-264 37,-258 43,-258"/>
<text text-anchor="middle" x="168.5" y="-425.2" font-family="Times New Roman,serif" font-size="11.00" fill="gray">model</text>
</g>
<g id="clust6" class="cluster"><title>cluster_\validator</title>
<path fill="none" stroke="gray" d="M31.5,-16C31.5,-16 324.5,-16 324.5,-16 330.5,-16 336.5,-22 336.5,-28 336.5,-28 336.5,-238 336.5,-238 336.5,-244 330.5,-250 324.5,-250 324.5,-250 31.5,-250 31.5,-250 25.5,-250 19.5,-244 19.5,-238 19.5,-238 19.5,-28 19.5,-28 19.5,-22 25.5,-16 31.5,-16"/>
<text text-anchor="middle" x="178" y="-237.2" font-family="Times New Roman,serif" font-size="11.00" fill="gray">validator</text>
</g>
<!-- \\util\\DbManager -->
<g id="node1" class="node"><title>\\util\\DbManager</title>
<polygon fill="none" stroke="black" points="294.5,-1082 217.5,-1082 217.5,-1046 294.5,-1046 294.5,-1082"/>
<text text-anchor="middle" x="256" y="-1061.2" font-family="Courier,monospace" font-size="11.00">DbManager</text>
</g>
<!-- \\util\\ConfManager -->
<g id="node2" class="node"><title>\\util\\ConfManager</title>
<polygon fill="none" stroke="black" points="301.5,-1028 210.5,-1028 210.5,-992 301.5,-992 301.5,-1028"/>
<text text-anchor="middle" x="256" y="-1007.2" font-family="Courier,monospace" font-size="11.00">ConfManager</text>
</g>
<!-- \\datamapper\\CourseMapper -->
<g id="node3" class="node"><title>\\datamapper\\CourseMapper</title>
<polygon fill="none" stroke="black" points="305,-948 207,-948 207,-912 305,-912 305,-948"/>
<text text-anchor="middle" x="256" y="-927.2" font-family="Courier,monospace" font-size="11.00">CourseMapper</text>
</g>
<!-- \\datamapper\\Mapper -->
<g id="node4" class="node"><title>\\datamapper\\Mapper</title>
<polygon fill="none" stroke="black" points="94.5,-867 37.5,-867 37.5,-831 94.5,-831 94.5,-867"/>
<text text-anchor="middle" x="66" y="-846.2" font-family="Courier,monospace" font-size="11.00">Mapper</text>
</g>
<!-- \\datamapper\\CourseMapper&#45;&gt;\\datamapper\\Mapper -->
<g id="edge1" class="edge"><title>\\datamapper\\CourseMapper&#45;&gt;\\datamapper\\Mapper</title>
<path fill="none" stroke="black" d="M206.713,-913.424C197.77,-910.126 188.556,-906.574 180,-903 154.018,-892.147 125.407,-878.456 103.475,-867.576"/>
<polygon fill="none" stroke="black" points="105.022,-864.436 94.5112,-863.101 101.895,-870.699 105.022,-864.436"/>
</g>
<!-- \\datamapper\\UserMapper -->
<g id="node5" class="node"><title>\\datamapper\\UserMapper</title>
<polygon fill="none" stroke="black" points="298,-894 214,-894 214,-858 298,-858 298,-894"/>
<text text-anchor="middle" x="256" y="-873.2" font-family="Courier,monospace" font-size="11.00">UserMapper</text>
</g>
<!-- \\datamapper\\UserMapper&#45;&gt;\\datamapper\\Mapper -->
<g id="edge8" class="edge"><title>\\datamapper\\UserMapper&#45;&gt;\\datamapper\\Mapper</title>
<path fill="none" stroke="black" d="M213.743,-870.075C181.211,-865.403 136.218,-858.941 104.656,-854.408"/>
<polygon fill="none" stroke="black" points="104.9,-850.907 94.5043,-852.95 103.905,-857.836 104.9,-850.907"/>
</g>
<!-- \\datamapper\\LessonMapper -->
<g id="node6" class="node"><title>\\datamapper\\LessonMapper</title>
<polygon fill="none" stroke="black" points="305,-840 207,-840 207,-804 305,-804 305,-840"/>
<text text-anchor="middle" x="256" y="-819.2" font-family="Courier,monospace" font-size="11.00">LessonMapper</text>
</g>
<!-- \\datamapper\\LessonMapper&#45;&gt;\\datamapper\\Mapper -->
<g id="edge10" class="edge"><title>\\datamapper\\LessonMapper&#45;&gt;\\datamapper\\Mapper</title>
<path fill="none" stroke="black" d="M206.585,-828.953C174.9,-833.504 134.098,-839.364 104.802,-843.571"/>
<polygon fill="none" stroke="black" points="103.969,-840.155 94.5681,-845.041 104.964,-847.084 103.969,-840.155"/>
</g>
<!-- \\datamapper\\LessonTimeMapper -->
<g id="node7" class="node"><title>\\datamapper\\LessonTimeMapper</title>
<polygon fill="none" stroke="black" points="318.5,-786 193.5,-786 193.5,-750 318.5,-750 318.5,-786"/>
<text text-anchor="middle" x="256" y="-765.2" font-family="Courier,monospace" font-size="11.00">LessonTimeMapper</text>
</g>
<!-- \\datamapper\\LessonTimeMapper&#45;&gt;\\datamapper\\Mapper -->
<g id="edge12" class="edge"><title>\\datamapper\\LessonTimeMapper&#45;&gt;\\datamapper\\Mapper</title>
<path fill="none" stroke="black" d="M202.694,-786.069C195.034,-788.935 187.279,-791.96 180,-795 154.018,-805.853 125.407,-819.544 103.475,-830.424"/>
<polygon fill="none" stroke="black" points="101.895,-827.301 94.5112,-834.899 105.022,-833.564 101.895,-827.301"/>
</g>
<!-- \\controller\\LessonController -->
<g id="node8" class="node"><title>\\controller\\LessonController</title>
<polygon fill="none" stroke="black" points="318.5,-706 193.5,-706 193.5,-670 318.5,-670 318.5,-706"/>
<text text-anchor="middle" x="256" y="-685.2" font-family="Courier,monospace" font-size="11.00">LessonController</text>
</g>
<!-- \\controller\\Controller -->
<g id="node9" class="node"><title>\\controller\\Controller</title>
<polygon fill="none" stroke="black" points="108,-598 24,-598 24,-562 108,-562 108,-598"/>
<text text-anchor="middle" x="66" y="-577.2" font-family="Courier,monospace" font-size="11.00">Controller</text>
</g>
<!-- \\controller\\LessonController&#45;&gt;\\controller\\Controller -->
<g id="edge2" class="edge"><title>\\controller\\LessonController&#45;&gt;\\controller\\Controller</title>
<path fill="none" stroke="black" d="M199.365,-669.939C192.719,-667.209 186.126,-664.218 180,-661 149.684,-645.073 118.264,-621.921 96.2744,-604.445"/>
<polygon fill="none" stroke="black" points="98.3153,-601.594 88.3305,-598.051 93.9264,-607.048 98.3153,-601.594"/>
</g>
<!-- \\controller\\UserController -->
<g id="node10" class="node"><title>\\controller\\UserController</title>
<polygon fill="none" stroke="black" points="311.5,-652 200.5,-652 200.5,-616 311.5,-616 311.5,-652"/>
<text text-anchor="middle" x="256" y="-631.2" font-family="Courier,monospace" font-size="11.00">UserController</text>
</g>
<!-- \\controller\\UserController&#45;&gt;\\controller\\Controller -->
<g id="edge7" class="edge"><title>\\controller\\UserController&#45;&gt;\\controller\\Controller</title>
<path fill="none" stroke="black" d="M200.37,-618.308C174.337,-610.831 143.388,-601.941 117.859,-594.608"/>
<polygon fill="none" stroke="black" points="118.581,-591.174 108.003,-591.778 116.648,-597.902 118.581,-591.174"/>
</g>
<!-- \\controller\\CourseController -->
<g id="node11" class="node"><title>\\controller\\CourseController</title>
<polygon fill="none" stroke="black" points="318.5,-598 193.5,-598 193.5,-562 318.5,-562 318.5,-598"/>
<text text-anchor="middle" x="256" y="-577.2" font-family="Courier,monospace" font-size="11.00">CourseController</text>
</g>
<!-- \\controller\\CourseController&#45;&gt;\\controller\\Controller -->
<g id="edge11" class="edge"><title>\\controller\\CourseController&#45;&gt;\\controller\\Controller</title>
<path fill="none" stroke="black" d="M193.442,-580C169.204,-580 141.686,-580 118.525,-580"/>
<polygon fill="none" stroke="black" points="118.217,-576.5 108.217,-580 118.217,-583.5 118.217,-576.5"/>
</g>
<!-- \\controller\\LessonTimeController -->
<g id="node12" class="node"><title>\\controller\\LessonTimeController</title>
<polygon fill="none" stroke="black" points="332,-544 180,-544 180,-508 332,-508 332,-544"/>
<text text-anchor="middle" x="256" y="-523.2" font-family="Courier,monospace" font-size="11.00">LessonTimeController</text>
</g>
<!-- \\controller\\LessonTimeController&#45;&gt;\\controller\\Controller -->
<g id="edge15" class="edge"><title>\\controller\\LessonTimeController&#45;&gt;\\controller\\Controller</title>
<path fill="none" stroke="black" d="M192.137,-544.056C168.054,-550.974 140.898,-558.774 118.052,-565.336"/>
<polygon fill="none" stroke="black" points="116.862,-562.036 108.217,-568.161 118.795,-568.764 116.862,-562.036"/>
</g>
<!-- \\controller\\DefaultController -->
<g id="node13" class="node"><title>\\controller\\DefaultController</title>
<polygon fill="none" stroke="black" points="321.5,-490 190.5,-490 190.5,-454 321.5,-454 321.5,-490"/>
<text text-anchor="middle" x="256" y="-469.2" font-family="Courier,monospace" font-size="11.00">DefaultController</text>
</g>
<!-- \\controller\\DefaultController&#45;&gt;\\controller\\Controller -->
<g id="edge16" class="edge"><title>\\controller\\DefaultController&#45;&gt;\\controller\\Controller</title>
<path fill="none" stroke="black" d="M199.365,-490.061C192.719,-492.791 186.126,-495.782 180,-499 149.684,-514.927 118.264,-538.079 96.2744,-555.555"/>
<polygon fill="none" stroke="black" points="93.9264,-552.952 88.3305,-561.949 98.3153,-558.406 93.9264,-552.952"/>
</g>
<!-- \\model\\Model -->
<g id="node14" class="node"><title>\\model\\Model</title>
<polygon fill="none" stroke="black" points="93,-356 39,-356 39,-320 93,-320 93,-356"/>
<text text-anchor="middle" x="66" y="-335.2" font-family="Courier,monospace" font-size="11.00">Model</text>
</g>
<!-- \\model\\Course -->
<g id="node15" class="node"><title>\\model\\Course</title>
<polygon fill="none" stroke="black" points="284.5,-410 227.5,-410 227.5,-374 284.5,-374 284.5,-410"/>
<text text-anchor="middle" x="256" y="-389.2" font-family="Courier,monospace" font-size="11.00">Course</text>
</g>
<!-- \\model\\Course&#45;&gt;\\model\\Model -->
<g id="edge3" class="edge"><title>\\model\\Course&#45;&gt;\\model\\Model</title>
<path fill="none" stroke="black" d="M227.26,-384.032C194.21,-374.539 138.925,-358.659 102.71,-348.257"/>
<polygon fill="none" stroke="black" points="103.613,-344.875 93.0357,-345.478 101.681,-351.603 103.613,-344.875"/>
</g>
<!-- \\model\\LessonTime -->
<g id="node16" class="node"><title>\\model\\LessonTime</title>
<polygon fill="none" stroke="black" points="298,-356 214,-356 214,-320 298,-320 298,-356"/>
<text text-anchor="middle" x="256" y="-335.2" font-family="Courier,monospace" font-size="11.00">LessonTime</text>
</g>
<!-- \\model\\LessonTime&#45;&gt;\\model\\Model -->
<g id="edge13" class="edge"><title>\\model\\LessonTime&#45;&gt;\\model\\Model</title>
<path fill="none" stroke="black" d="M213.743,-338C180.725,-338 134.872,-338 103.251,-338"/>
<polygon fill="none" stroke="black" points="103.113,-334.5 93.1128,-338 103.113,-341.5 103.113,-334.5"/>
</g>
<!-- \\model\\User -->
<g id="node17" class="node"><title>\\model\\User</title>
<polygon fill="none" stroke="black" points="283,-302 229,-302 229,-266 283,-266 283,-302"/>
<text text-anchor="middle" x="256" y="-281.2" font-family="Courier,monospace" font-size="11.00">User</text>
</g>
<!-- \\model\\User&#45;&gt;\\model\\Model -->
<g id="edge14" class="edge"><title>\\model\\User&#45;&gt;\\model\\Model</title>
<path fill="none" stroke="black" d="M228.859,-291.508C196.12,-300.912 139.866,-317.07 103.053,-327.644"/>
<polygon fill="none" stroke="black" points="101.866,-324.344 93.2209,-330.468 103.799,-331.072 101.866,-324.344"/>
</g>
<!-- \\validator\\CourseValidator -->
<g id="node18" class="node"><title>\\validator\\CourseValidator</title>
<polygon fill="none" stroke="black" points="315,-222 197,-222 197,-186 315,-186 315,-222"/>
<text text-anchor="middle" x="256" y="-201.2" font-family="Courier,monospace" font-size="11.00">CourseValidator</text>
</g>
<!-- \\validator\\Validator -->
<g id="node22" class="node"><title>\\validator\\Validator</title>
<polygon fill="none" stroke="black" points="104.5,-141 27.5,-141 27.5,-105 104.5,-105 104.5,-141"/>
<text text-anchor="middle" x="66" y="-120.2" font-family="Courier,monospace" font-size="11.00">Validator</text>
</g>
<!-- \\validator\\CourseValidator&#45;&gt;\\validator\\Validator -->
<g id="edge4" class="edge"><title>\\validator\\CourseValidator&#45;&gt;\\validator\\Validator</title>
<path fill="none" stroke="black" d="M202.694,-185.931C195.034,-183.065 187.279,-180.04 180,-177 157.121,-167.443 132.203,-155.686 111.602,-145.584"/>
<polygon fill="none" stroke="black" points="112.98,-142.361 102.463,-141.073 109.881,-148.638 112.98,-142.361"/>
</g>
<!-- \\validator\\UserValidator -->
<g id="node19" class="node"><title>\\validator\\UserValidator</title>
<polygon fill="none" stroke="black" points="308,-168 204,-168 204,-132 308,-132 308,-168"/>
<text text-anchor="middle" x="256" y="-147.2" font-family="Courier,monospace" font-size="11.00">UserValidator</text>
</g>
<!-- \\validator\\UserValidator&#45;&gt;\\validator\\Validator -->
<g id="edge5" class="edge"><title>\\validator\\UserValidator&#45;&gt;\\validator\\Validator</title>
<path fill="none" stroke="black" d="M203.628,-142.622C175.864,-138.635 141.806,-133.743 114.64,-129.842"/>
<polygon fill="none" stroke="black" points="114.989,-126.356 104.593,-128.399 113.994,-133.285 114.989,-126.356"/>
</g>
<!-- \\validator\\LessonValidator -->
<g id="node20" class="node"><title>\\validator\\LessonValidator</title>
<polygon fill="none" stroke="black" points="315,-114 197,-114 197,-78 315,-78 315,-114"/>
<text text-anchor="middle" x="256" y="-93.2" font-family="Courier,monospace" font-size="11.00">LessonValidator</text>
</g>
<!-- \\validator\\LessonValidator&#45;&gt;\\validator\\Validator -->
<g id="edge6" class="edge"><title>\\validator\\LessonValidator&#45;&gt;\\validator\\Validator</title>
<path fill="none" stroke="black" d="M196.803,-104.358C170.454,-108.142 139.693,-112.56 114.731,-116.145"/>
<polygon fill="none" stroke="black" points="114.171,-112.689 104.77,-117.576 115.166,-119.618 114.171,-112.689"/>
</g>
<!-- \\validator\\LessonTimeValidator -->
<g id="node21" class="node"><title>\\validator\\LessonTimeValidator</title>
<polygon fill="none" stroke="black" points="328.5,-60 183.5,-60 183.5,-24 328.5,-24 328.5,-60"/>
<text text-anchor="middle" x="256" y="-39.2" font-family="Courier,monospace" font-size="11.00">LessonTimeValidator</text>
</g>
<!-- \\validator\\LessonTimeValidator&#45;&gt;\\validator\\Validator -->
<g id="edge9" class="edge"><title>\\validator\\LessonTimeValidator&#45;&gt;\\validator\\Validator</title>
<path fill="none" stroke="black" d="M202.694,-60.0689C195.034,-62.9347 187.279,-65.9597 180,-69 157.121,-78.5566 132.203,-90.3142 111.602,-100.416"/>
<polygon fill="none" stroke="black" points="109.881,-97.3618 102.463,-104.927 112.98,-103.639 109.881,-97.3618"/>
</g>
</g>
</svg>
